<svg xmlns="http://www.w3.org/2000/svg" data-v-91412dc0="" viewBox="-409.89270241121017 -318.65685873724277 773.7553901378599 567.7800311859642"><path d="M 0 2 L 48 0 L 92 3 L 149.47 2" fill="none" stroke="black" stroke-width="4" stroke-linecap="round" stroke-linejoin="round" class="bond" id="bond0_0_0" transform="translate(-8.121491632733754, 5.834498578235804)translate(-315.5878065937409, -117.92679720763776)rotate(54.30644510098111)"/><path d="M 0 2 L 48 0 L 92 3 L 149.47 2" fill="none" stroke="black" stroke-width="4" stroke-linecap="round" stroke-linejoin="round" class="bond" id="bond0_1_0" transform="translate(8.121491632733754, -5.834498578235804)translate(-315.5878065937409, -117.92679720763776)rotate(54.30644510098111)"/><path d="M 0 0 L 59 2 L 149.47 0" fill="none" stroke="black" stroke-width="4" stroke-linecap="round" stroke-linejoin="round" class="bond" id="bond1_0_0" transform="translate(-8.121491632733756, 5.8344985782358005)translate(-228.07032792020382, 3.8955772833685454)rotate(54.306445100981136)"/><path d="M 0 0 L 59 2 L 149.47 0" fill="none" stroke="black" stroke-width="4" stroke-linecap="round" stroke-linejoin="round" class="bond" id="bond1_1_0" transform="translate(8.121491632733756, -5.8344985782358005)translate(-228.07032792020382, 3.8955772833685454)rotate(54.306445100981136)"/><path d="M 0 2 L 48 0 L 92 3 L 149.47 2" fill="none" stroke="black" stroke-width="4" stroke-linecap="round" stroke-linejoin="round" class="bond" id="bond2_0" transform="translate(-228.07032792020382, 3.8955772833685454)rotate(144.30644510098114)"/><path d="M 0 1 L 37 0 L 104 1 L 149.47 1" fill="none" stroke="black" stroke-width="4" stroke-linecap="round" stroke-linejoin="round" class="bond" id="bond3_0" transform="translate(-228.07032792020382, 3.8955772833685454)rotate(-35.693554899018906)"/><path d="M 0 2 L 48 0 L 92 3 L 149.47 2" fill="none" stroke="black" stroke-width="4" stroke-linecap="round" stroke-linejoin="round" class="bond" id="bond4_0" transform="translate(-106.24795342919752, -83.62190139016856)rotate(24.306445100981104)"/><path d="M 0 0 L 59 2 L 149.47 0" fill="none" stroke="black" stroke-width="4" stroke-linecap="round" stroke-linejoin="round" class="bond" id="bond5_0_0" transform="translate(-9.95066735968809, 0.9920781707295255)translate(30.455593622751554, -21.879369668384285)rotate(84.30644510098107)"/><path d="M 0 0 L 59 2 L 149.47 0" fill="none" stroke="black" stroke-width="4" stroke-linecap="round" stroke-linejoin="round" class="bond" id="bond5_1_0" transform="translate(9.95066735968809, -0.9920781707295255)translate(30.455593622751554, -21.879369668384285)rotate(84.30644510098107)"/><path d="M 0 0 L 59 2 L 149.47 0" fill="none" stroke="black" stroke-width="4" stroke-linecap="round" stroke-linejoin="round" class="bond" id="bond6_0" transform="translate(45.33676618369445, 127.3806407269372)rotate(24.30644510098107)"/><path d="M 0 2 L 48 0 L 92 3 L 149.47 2" fill="none" stroke="black" stroke-width="4" stroke-linecap="round" stroke-linejoin="round" class="bond" id="bond7_0_0" transform="translate(5.83449857823581, 8.121491632733749)translate(182.04031323564357, 189.1231724487214)rotate(-35.693554899018935)"/><path d="M 0 2 L 48 0 L 92 3 L 149.47 2" fill="none" stroke="black" stroke-width="4" stroke-linecap="round" stroke-linejoin="round" class="bond" id="bond7_1_0" transform="translate(-5.83449857823581, -8.121491632733749)translate(182.04031323564357, 189.1231724487214)rotate(-35.693554899018935)"/><path d="M 0 0 L 59 2 L 149.47 0" fill="none" stroke="black" stroke-width="4" stroke-linecap="round" stroke-linejoin="round" class="bond" id="bond8_0" transform="translate(303.86268772664977, 101.60569377518426)rotate(-95.69355489901889)"/><path d="M 0 0 L 59 2 L 149.47 0" fill="none" stroke="black" stroke-width="4" stroke-linecap="round" stroke-linejoin="round" class="bond" id="bond9_0_0" transform="translate(4.116168781452283, -9.113569803463275)translate(288.981515165707, -47.65431662013712)rotate(-155.69355489901892)"/><path d="M 0 2 L 48 0 L 92 3 L 149.47 2" fill="none" stroke="black" stroke-width="4" stroke-linecap="round" stroke-linejoin="round" class="bond" id="bond9_1_0" transform="translate(-4.116168781452283, 9.113569803463275)translate(288.981515165707, -47.65431662013712)rotate(-155.69355489901892)"/><path d="M 0 0 L 59 2 L 149.47 0" fill="none" stroke="black" stroke-width="4" stroke-linecap="round" stroke-linejoin="round" class="bond" id="bond10_0" transform="translate(152.27796811375782, -109.3968483419214)rotate(-95.69355489901892)"/><path d="M 0 0 L 59 2 L 149.47 0" fill="none" stroke="black" stroke-width="4" stroke-linecap="round" stroke-linejoin="round" class="bond" id="bond11_0" transform="translate(152.27796811375782, -109.3968483419214)rotate(144.30644510098108)"/><circle cx="-315.5878065937409" cy="-117.92679720763776" r="50" fill="white"/><path d="M 12.03 15.07 C 12.03 15.07 12.03 15.07 12.03 15.07 M 12.03 15.07 C 12.03 15.07 12.03 15.07 12.03 15.07 M 2.13 35.61 C 6.75 36.73 8.06 26.73 24.43 9.95 M 2.13 35.61 C 8.92 25.55 20.58 21.94 24.43 9.95 M 5.34 41.06 C 14.1 24.78 17.43 22.69 35.52 6.34 M 5.34 41.06 C 11.56 29.83 21.39 19.42 35.52 6.34 M 5.28 50.28 C 21.37 37.87 33.3 23.42 43.33 6.5 M 5.28 50.28 C 15.23 30.77 28.66 23.99 43.33 6.5 M 5.21 59.49 C 21.39 43.7 36.61 29.4 50.48 7.42 M 5.21 59.49 C 10.58 47.33 23.33 38.2 50.48 7.42 M 2.52 71.73 C 9.9 61.58 29.59 45.43 58.29 7.58 M 2.52 71.73 C 15.4 50.03 35.16 37.28 58.29 7.58 M 5.08 77.93 C 30.92 61.4 40.44 36.32 64.79 9.26 M 5.08 77.93 C 29.08 52.52 43.12 26.17 64.79 9.26 M 8.96 82.62 C 15.27 61.1 43.24 42.53 70.63 11.68 M 8.96 82.62 C 19.72 68.47 32.49 57.42 70.63 11.68 M 14.14 85.81 C 17.98 76.88 33.63 46.18 76.47 14.11 M 14.14 85.81 C 34.63 62.86 45.24 46.89 76.47 14.11 M 19.98 88.23 C 42.32 63.53 55.92 32.79 82.31 16.54 M 19.98 88.23 C 34.33 69.8 45.2 54.9 82.31 16.54 M 25.17 91.41 C 35.92 70.13 48.77 59.45 88.15 18.96 M 25.17 91.41 C 53 58.3 74.59 32.94 88.15 18.96 M 31.01 93.84 C 42.74 77.36 71.9 55.52 93.99 21.39 M 31.01 93.84 C 50.87 68.81 71.37 46 93.99 21.39 M 37.5 95.51 C 53.56 87.49 75.7 54.67 96.55 27.59 M 37.5 95.51 C 52.77 72.33 77.23 51.24 96.55 27.59 M 44 97.19 C 65.88 65.93 82.79 50.71 99.11 33.79 M 44 97.19 C 54.26 77.5 69.28 63.57 99.11 33.79 M 49.84 99.61 C 65.84 89.59 86.23 64.86 100.36 41.5 M 49.84 99.61 C 66.2 75.02 81.5 57.2 100.36 41.5 M 56.34 101.29 C 66.67 90.98 89.87 68.92 100.29 50.72 M 56.34 101.29 C 63.95 88.22 74.26 72.74 100.29 50.72 M 66.11 99.18 C 84.13 84.49 83.66 76.13 100.23 59.94 M 66.11 99.18 C 76.02 86.09 91.61 73.57 100.23 59.94 M 76.55 96.33 C 81.57 89.3 93.37 82.47 99.51 69.91 M 76.55 96.33 C 79.69 91.85 90.21 84.83 99.51 69.91" fill="none" stroke="Red" stroke-width="2" stroke-linecap="round" stroke-linejoin="round" stroke-miterlimit="10" class="atom" id="atom0_0" transform="translate(-315.5878065937409,-117.92679720763776)translate(-50,-50)"/><path d="M 1.75 71.1 C -2.21 62.77 -0.54 47.07 1.13 37.78 C 2.8 28.49 6.25 20.71 11.78 15.36 C 17.31 10.01 26.04 7.16 34.3 5.69 C 42.57 4.22 52.08 4.47 61.37 6.54 C 70.66 8.61 83.87 12.71 90.02 18.13 C 96.18 23.55 97.05 30.82 98.29 39.06 C 99.52 47.29 99.95 58.8 97.43 67.54 C 94.9 76.29 90.47 86.27 83.14 91.53 C 75.8 96.79 62.42 98.98 53.42 99.1 C 44.41 99.23 37.06 95.51 29.1 92.3 C 21.13 89.09 8.73 90.74 5.63 79.84 C 2.52 68.94 4.59 39.3 10.47 26.9 C 16.35 14.5 40.53 4.72 40.91 5.42 M 19.68 14.8 C 24.86 8.28 33.82 -0.17 42.24 -1.54 C 50.66 -2.92 62.49 1.96 70.21 6.54 C 77.93 11.13 83.04 18.62 88.57 25.99 C 94.1 33.35 102.21 43.66 103.41 50.76 C 104.61 57.86 100.27 61.97 95.76 68.58 C 91.25 75.19 84.15 84.83 76.33 90.44 C 68.52 96.05 57.22 101.67 48.88 102.24 C 40.55 102.82 33.78 99.41 26.32 93.89 C 18.85 88.36 8.55 76.76 4.11 69.1 C -0.33 61.44 -2.06 55.11 -0.32 47.95 C 1.42 40.8 12.7 32.44 14.55 26.16 C 16.39 19.89 11.06 13.09 10.74 10.32 C 10.41 7.56 12 8.08 12.58 9.56" fill="none" stroke="Red" stroke-width="2" stroke-linecap="round" stroke-linejoin="round" stroke-miterlimit="10" class="atom" id="atom0_1" transform="translate(-315.5878065937409,-117.92679720763776)translate(-50,-50)"/><circle cx="-228.07032792020382" cy="3.8955772833685454" r="50" fill="white"/><path d="M 11.27 17.06 C 11.27 17.06 11.27 17.06 11.27 17.06 M 11.27 17.06 C 11.27 17.06 11.27 17.06 11.27 17.06 M 4.65 33.83 C 10.02 32.45 12.91 22.74 30.89 3.64 M 4.65 33.83 C 12.9 22.87 24.67 16.68 30.89 3.64 M 0.65 47.58 C 10.98 31.29 17.17 25.48 36.73 6.07 M 0.65 47.58 C 9.43 34.42 21.06 21.71 36.73 6.07 M 0.58 56.8 C 17.86 41.35 32.07 24.46 43.88 6.98 M 0.58 56.8 C 13.12 36.39 28.13 25.61 43.88 6.98 M 3.8 62.24 C 20.61 45.04 36.74 28.89 51.69 7.15 M 3.8 62.24 C 10.88 49.45 23.57 39.01 51.69 7.15 M 6.36 68.44 C 15.18 57.05 33.23 41.15 60.81 5.8 M 6.36 68.44 C 19.87 47.73 38.53 33.75 60.81 5.8 M 9.58 73.89 C 32.41 57.5 43.01 34.71 66 8.98 M 9.58 73.89 C 31.51 50.38 45.99 26.07 66 8.98 M 13.45 78.58 C 20.84 59.4 44.47 42.42 71.18 12.16 M 13.45 78.58 C 23.94 65.22 35.87 54.22 71.18 12.16 M 17.32 83.27 C 23.29 73.12 38.04 46.64 77.02 14.59 M 17.32 83.27 C 36.1 62.14 47.5 46.2 77.02 14.59 M 21.85 87.21 C 43.21 63.46 57.99 35.13 82.21 17.77 M 21.85 87.21 C 35.92 69.64 47.34 54.7 82.21 17.77 M 26.38 91.14 C 37.39 71.76 49.97 60.38 86.73 21.71 M 26.38 91.14 C 52.23 60.63 73.4 35.88 86.73 21.71 M 30.25 95.83 C 43.02 79.01 68.78 58.15 90.61 26.4 M 30.25 95.83 C 49.51 72.04 69.29 49.87 90.61 26.4 M 37.4 96.75 C 52.7 86.9 72.59 58.51 94.48 31.09 M 37.4 96.75 C 53.16 74.52 75.76 53.8 94.48 31.09 M 44.55 97.67 C 65.72 68.71 83.19 51.79 98.35 35.78 M 44.55 97.67 C 55.25 79.47 69.54 65.55 98.35 35.78 M 51.05 99.34 C 67.24 87.03 86.73 63.66 102.22 40.47 M 51.05 99.34 C 67.95 75.55 84.06 56.84 102.22 40.47 M 58.2 100.26 C 68.86 89.25 89.16 69.37 100.19 51.96 M 58.2 100.26 C 66.01 88.11 75.84 74.09 100.19 51.96 M 63.39 103.44 C 79.34 89.61 81.42 80.54 97.5 64.2 M 63.39 103.44 C 73.6 90.42 88.08 77.83 97.5 64.2" fill="none" stroke="Yellow" stroke-width="2" stroke-linecap="round" stroke-linejoin="round" stroke-miterlimit="10" class="atom" id="atom1_0" transform="translate(-228.07032792020382,3.8955772833685454)translate(-50,-50)"/><path d="M -0.59 46.76 C -0.53 37.79 5.87 24.3 11.37 16.95 C 16.88 9.59 24.5 4.7 32.46 2.6 C 40.42 0.51 50.73 1.84 59.16 4.38 C 67.59 6.92 76.09 12.03 83.02 17.86 C 89.95 23.69 98.41 31.66 100.74 39.33 C 103.06 47.01 99.9 55.86 96.97 63.89 C 94.05 71.92 89.33 81.41 83.19 87.5 C 77.05 93.6 68.99 99.16 60.13 100.46 C 51.27 101.77 38.24 99.26 30.02 95.34 C 21.81 91.42 15.95 83.53 10.86 76.94 C 5.77 70.35 -0.83 65.03 -0.5 55.82 C -0.17 46.61 7.77 29.53 12.86 21.68 C 17.94 13.83 29.59 8.03 30.01 8.74 M 26.39 8.96 C 32.74 3.67 42.7 -1.83 51.34 -1.64 C 59.99 -1.45 71.14 4.37 78.27 10.08 C 85.4 15.79 90.02 24.45 94.1 32.61 C 98.19 40.77 103.33 51.5 102.78 59.02 C 102.23 66.54 96.59 71.68 90.82 77.74 C 85.05 83.8 76.61 91.51 68.14 95.39 C 59.67 99.27 48.29 102.25 40 101.02 C 31.7 99.79 24.82 94.66 18.37 88.03 C 11.92 81.4 4.02 69.55 1.28 61.24 C -1.46 52.93 -1.24 45.42 1.92 38.19 C 5.08 30.96 17.28 23.27 20.24 17.84 C 23.2 12.41 19.54 7.69 19.68 5.61 C 19.82 3.52 20.63 3.98 21.08 5.33" fill="none" stroke="Yellow" stroke-width="2" stroke-linecap="round" stroke-linejoin="round" stroke-miterlimit="10" class="atom" id="atom1_1" transform="translate(-228.07032792020382,3.8955772833685454)translate(-50,-50)"/><circle cx="-140.5528492466668" cy="125.71795177437491" r="50" fill="white"/><path d="M 11.27 17.06 C 11.27 17.06 11.27 17.06 11.27 17.06 M 11.27 17.06 C 11.27 17.06 11.27 17.06 11.27 17.06 M 4.65 33.83 C 10.02 32.45 12.91 22.74 30.89 3.64 M 4.65 33.83 C 12.9 22.87 24.67 16.68 30.89 3.64 M 0.65 47.58 C 10.98 31.29 17.17 25.48 36.73 6.07 M 0.65 47.58 C 9.43 34.42 21.06 21.71 36.73 6.07 M 0.58 56.8 C 17.86 41.35 32.07 24.46 43.88 6.98 M 0.58 56.8 C 13.12 36.39 28.13 25.61 43.88 6.98 M 3.8 62.24 C 20.61 45.04 36.74 28.89 51.69 7.15 M 3.8 62.24 C 10.88 49.45 23.57 39.01 51.69 7.15 M 6.36 68.44 C 15.18 57.05 33.23 41.15 60.81 5.8 M 6.36 68.44 C 19.87 47.73 38.53 33.75 60.81 5.8 M 9.58 73.89 C 32.41 57.5 43.01 34.71 66 8.98 M 9.58 73.89 C 31.51 50.38 45.99 26.07 66 8.98 M 13.45 78.58 C 20.84 59.4 44.47 42.42 71.18 12.16 M 13.45 78.58 C 23.94 65.22 35.87 54.22 71.18 12.16 M 17.32 83.27 C 23.29 73.12 38.04 46.64 77.02 14.59 M 17.32 83.27 C 36.1 62.14 47.5 46.2 77.02 14.59 M 21.85 87.21 C 43.21 63.46 57.99 35.13 82.21 17.77 M 21.85 87.21 C 35.92 69.64 47.34 54.7 82.21 17.77 M 26.38 91.14 C 37.39 71.76 49.97 60.38 86.73 21.71 M 26.38 91.14 C 52.23 60.63 73.4 35.88 86.73 21.71 M 30.25 95.83 C 43.02 79.01 68.78 58.15 90.61 26.4 M 30.25 95.83 C 49.51 72.04 69.29 49.87 90.61 26.4 M 37.4 96.75 C 52.7 86.9 72.59 58.51 94.48 31.09 M 37.4 96.75 C 53.16 74.52 75.76 53.8 94.48 31.09 M 44.55 97.67 C 65.72 68.71 83.19 51.79 98.35 35.78 M 44.55 97.67 C 55.25 79.47 69.54 65.55 98.35 35.78 M 51.05 99.34 C 67.24 87.03 86.73 63.66 102.22 40.47 M 51.05 99.34 C 67.95 75.55 84.06 56.84 102.22 40.47 M 58.2 100.26 C 68.86 89.25 89.16 69.37 100.19 51.96 M 58.2 100.26 C 66.01 88.11 75.84 74.09 100.19 51.96 M 63.39 103.44 C 79.34 89.61 81.42 80.54 97.5 64.2 M 63.39 103.44 C 73.6 90.42 88.08 77.83 97.5 64.2" fill="none" stroke="Red" stroke-width="2" stroke-linecap="round" stroke-linejoin="round" stroke-miterlimit="10" class="atom" id="atom2_0" transform="translate(-140.5528492466668,125.71795177437491)translate(-50,-50)"/><path d="M -0.59 46.76 C -0.53 37.79 5.87 24.3 11.37 16.95 C 16.88 9.59 24.5 4.7 32.46 2.6 C 40.42 0.51 50.73 1.84 59.16 4.38 C 67.59 6.92 76.09 12.03 83.02 17.86 C 89.95 23.69 98.41 31.66 100.74 39.33 C 103.06 47.01 99.9 55.86 96.97 63.89 C 94.05 71.92 89.33 81.41 83.19 87.5 C 77.05 93.6 68.99 99.16 60.13 100.46 C 51.27 101.77 38.24 99.26 30.02 95.34 C 21.81 91.42 15.95 83.53 10.86 76.94 C 5.77 70.35 -0.83 65.03 -0.5 55.82 C -0.17 46.61 7.77 29.53 12.86 21.68 C 17.94 13.83 29.59 8.03 30.01 8.74 M 26.39 8.96 C 32.74 3.67 42.7 -1.83 51.34 -1.64 C 59.99 -1.45 71.14 4.37 78.27 10.08 C 85.4 15.79 90.02 24.45 94.1 32.61 C 98.19 40.77 103.33 51.5 102.78 59.02 C 102.23 66.54 96.59 71.68 90.82 77.74 C 85.05 83.8 76.61 91.51 68.14 95.39 C 59.67 99.27 48.29 102.25 40 101.02 C 31.7 99.79 24.82 94.66 18.37 88.03 C 11.92 81.4 4.02 69.55 1.28 61.24 C -1.46 52.93 -1.24 45.42 1.92 38.19 C 5.08 30.96 17.28 23.27 20.24 17.84 C 23.2 12.41 19.54 7.69 19.68 5.61 C 19.82 3.52 20.63 3.98 21.08 5.33" fill="none" stroke="Red" stroke-width="2" stroke-linecap="round" stroke-linejoin="round" stroke-miterlimit="10" class="atom" id="atom2_1" transform="translate(-140.5528492466668,125.71795177437491)translate(-50,-50)"/><circle cx="-349.89270241121017" cy="91.41305595690561" r="50" fill="white"/><path d="M 12.03 15.07 C 12.03 15.07 12.03 15.07 12.03 15.07 M 12.03 15.07 C 12.03 15.07 12.03 15.07 12.03 15.07 M 3.99 31.94 C 7.85 34 8.36 24.91 22.36 10.8 M 3.99 31.94 C 9.37 23.24 19.78 21.07 22.36 10.8 M 3.83 39.74 C 12.21 23.83 15.18 22.16 32.7 6.54 M 3.83 39.74 C 9.68 28.95 19.1 19.02 32.7 6.54 M 3.67 47.55 C 18.41 36.85 28.95 24.02 37.78 8.31 M 3.67 47.55 C 12.18 29.65 24.29 24.39 37.78 8.31 M 4.16 54.61 C 18.65 40.67 32.1 28.42 44.18 8.57 M 4.16 54.61 C 8.54 44 20.11 36.23 44.18 8.57 M 4 62.42 C 8.95 55.07 26.24 41.66 50.58 8.83 M 4 62.42 C 14.15 43.82 31.11 34.28 50.58 8.83 M 2.52 71.73 C 26.79 56.98 34.75 33.69 56.98 9.09 M 2.52 71.73 C 24.73 48.56 36.99 24.26 56.98 9.09 M 4.99 76.52 C 10.69 55.71 38.06 37.83 64.03 8.6 M 4.99 76.52 C 15.27 62.96 27.5 52.52 64.03 8.6 M 7.45 81.31 C 11.16 72.56 26.67 42.04 69.12 10.37 M 7.45 81.31 C 27.75 58.58 38.19 42.8 69.12 10.37 M 11.88 83.84 C 34.01 59.41 47.39 28.92 73.55 12.9 M 11.88 83.84 C 26.09 65.59 36.8 50.87 73.55 12.9 M 16.31 86.36 C 26.92 65.23 39.62 54.73 78.63 14.67 M 16.31 86.36 C 43.89 53.55 65.23 28.48 78.63 14.67 M 20.74 88.89 C 32.47 72.41 61.63 50.57 83.72 16.44 M 20.74 88.89 C 40.6 63.85 61.1 41.05 83.72 16.44 M 25.82 90.66 C 42.78 81.77 65.76 47.99 88.15 18.96 M 25.82 90.66 C 42.08 66.09 67.63 43.74 88.15 18.96 M 30.25 93.19 C 55.38 58.51 75.32 39.81 93.23 20.73 M 30.25 93.19 C 42.51 71.02 59.44 54.89 93.23 20.73 M 35.34 94.96 C 54.4 81.97 77.68 53.91 95.04 26.28 M 35.34 94.96 C 54.57 66.62 73.08 45.1 95.04 26.28 M 41.08 95.97 C 55.36 80.62 82.57 53.95 97.5 31.07 M 41.08 95.97 C 51.54 79.13 64.74 60.32 97.5 31.07 M 46.16 97.74 C 69.93 76.97 74.89 62.36 99.31 36.61 M 46.16 97.74 C 62.43 77.13 84.23 57.46 99.31 36.61 M 51.25 99.51 C 66.85 80.92 88.96 62.22 101.11 42.16 M 51.25 99.51 C 61 89.7 76.95 76.42 101.11 42.16 M 56.34 101.29 C 64.9 95.87 73.81 77.59 100.95 49.97 M 56.34 101.29 C 71.44 82.41 89.8 65.46 100.95 49.97 M 64.7 99.28 C 66.21 93.72 90.99 66.29 100.79 57.77 M 64.7 99.28 C 78.91 81.44 88.54 71.87 100.79 57.77 M 73.07 97.28 C 74.97 96.73 82.47 86.64 98 68.6 M 73.07 97.28 C 84.34 88.14 87.1 80.56 98 68.6" fill="none" stroke="Blue" stroke-width="2" stroke-linecap="round" stroke-linejoin="round" stroke-miterlimit="10" class="atom" id="atom3_0" transform="translate(-349.89270241121017,91.41305595690561)translate(-50,-50)"/><path d="M 1.75 71.1 C -2.21 62.77 -0.54 47.07 1.13 37.78 C 2.8 28.49 6.25 20.71 11.78 15.36 C 17.31 10.01 26.04 7.16 34.3 5.69 C 42.57 4.22 52.08 4.47 61.37 6.54 C 70.66 8.61 83.87 12.71 90.02 18.13 C 96.18 23.55 97.05 30.82 98.29 39.06 C 99.52 47.29 99.95 58.8 97.43 67.54 C 94.9 76.29 90.47 86.27 83.14 91.53 C 75.8 96.79 62.42 98.98 53.42 99.1 C 44.41 99.23 37.06 95.51 29.1 92.3 C 21.13 89.09 8.73 90.74 5.63 79.84 C 2.52 68.94 4.59 39.3 10.47 26.9 C 16.35 14.5 40.53 4.72 40.91 5.42 M 19.68 14.8 C 24.86 8.28 33.82 -0.17 42.24 -1.54 C 50.66 -2.92 62.49 1.96 70.21 6.54 C 77.93 11.13 83.04 18.62 88.57 25.99 C 94.1 33.35 102.21 43.66 103.41 50.76 C 104.61 57.86 100.27 61.97 95.76 68.58 C 91.25 75.19 84.15 84.83 76.33 90.44 C 68.52 96.05 57.22 101.67 48.88 102.24 C 40.55 102.82 33.78 99.41 26.32 93.89 C 18.85 88.36 8.55 76.76 4.11 69.1 C -0.33 61.44 -2.06 55.11 -0.32 47.95 C 1.42 40.8 12.7 32.44 14.55 26.16 C 16.39 19.89 11.06 13.09 10.74 10.32 C 10.41 7.56 12 8.08 12.58 9.56" fill="none" stroke="Blue" stroke-width="2" stroke-linecap="round" stroke-linejoin="round" stroke-miterlimit="10" class="atom" id="atom3_1" transform="translate(-349.89270241121017,91.41305595690561)translate(-50,-50)"/><circle cx="-106.24795342919752" cy="-83.62190139016856" r="50" fill="white"/><path d="M 12.03 15.07 C 12.03 15.07 12.03 15.07 12.03 15.07 M 12.03 15.07 C 12.03 15.07 12.03 15.07 12.03 15.07 M 7.08 25.34 C 9.49 28.15 9.02 21.46 18.23 12.51 M 7.08 25.34 C 10.04 19.48 17.47 19.27 18.23 12.51 M 2.13 35.61 C 8.58 21.53 9.76 21.92 24.43 9.95 M 2.13 35.61 C 6.11 26.97 13.44 19.43 24.43 9.95 M 3.08 39.09 C 15.58 31.22 23.77 21.08 30.63 7.39 M 3.08 39.09 C 9.19 23.87 19.1 21.13 30.63 7.39 M 2.72 44.08 C 14.89 32.71 25.9 23.26 35.52 6.34 M 2.72 44.08 C 5.73 35.62 15.69 29.7 35.52 6.34 M 3.01 48.31 C 5.19 44.16 19.74 33.9 39.1 6.8 M 3.01 48.31 C 10.05 33.25 23.82 27.39 39.1 6.8 M 3.31 52.54 C 23.25 42.69 26.93 24.33 43.33 6.5 M 3.31 52.54 C 20.59 35.55 27.96 16.87 43.33 6.5 M 2.95 57.53 C 5.2 40.78 29.07 26.92 46.91 6.96 M 2.95 57.53 C 10.47 47.35 19.6 40.47 46.91 6.96 M 3.25 61.76 C 4.24 56.87 16.4 30.2 50.48 7.42 M 3.25 61.76 C 19.6 43.62 26.21 32.25 50.48 7.42 M 3.54 65.99 C 22.38 45.92 32.23 19.49 54.71 7.12 M 3.54 65.99 C 15.54 50.75 23.73 38.93 54.71 7.12 M 2.52 71.73 C 11.71 52.18 22.95 43.36 58.29 7.58 M 2.52 71.73 C 27.58 41.98 46.43 19.77 58.29 7.58 M 4.13 74.46 C 14.69 59.58 42.48 39.3 62.52 7.29 M 4.13 74.46 C 22.36 51.31 41.32 30.28 62.52 7.29 M 5.08 77.93 C 21.5 69.56 43.98 36.36 65.44 8.5 M 5.08 77.93 C 20.74 54.2 45.64 32.6 65.44 8.5 M 6.69 80.66 C 31.28 46.55 50.71 28.43 68.36 9.71 M 6.69 80.66 C 18.62 58.9 35.23 43.14 68.36 9.71 M 9.61 81.87 C 29.33 68.25 53.23 39.47 71.28 10.93 M 9.61 81.87 C 29.46 52.73 48.66 30.42 71.28 10.93 M 11.88 83.84 C 28.03 66.09 57.13 37.24 74.2 12.14 M 11.88 83.84 C 23.68 65.21 38.26 44.83 74.2 12.14 M 14.8 85.05 C 41.34 61.35 48.93 43.72 77.12 13.35 M 14.8 85.05 C 34.13 60.8 58.92 37.69 77.12 13.35 M 17.72 86.27 C 38.22 62.31 65.11 38.12 80.04 14.57 M 17.72 86.27 C 30.52 73.98 49 57.8 80.04 14.57 M 19.98 88.23 C 33.7 77.68 47.33 53.97 82.96 15.78 M 19.98 88.23 C 41.76 61.87 66.27 37.85 82.96 15.78 M 22.9 89.45 C 31.26 74.03 64.03 37.42 85.88 16.99 M 22.9 89.45 C 47.57 60.17 67.23 39.05 85.88 16.99 M 25.82 90.66 C 35.83 81.72 51.64 62.08 88.8 18.21 M 25.82 90.66 C 49.16 67.37 64.03 45.88 88.8 18.21 M 28.09 92.63 C 53.34 72.49 61.82 43.05 91.72 19.42 M 28.09 92.63 C 49.5 61.61 76.39 36.51 91.72 19.42 M 31.01 93.84 C 50.81 62.1 71.23 33.57 92.68 22.9 M 31.01 93.84 C 57.86 64.87 75.06 42.42 92.68 22.9 M 33.93 95.06 C 42.59 76.69 55.08 67.25 94.28 25.62 M 33.93 95.06 C 44.91 77.79 63.05 63.71 94.28 25.62 M 37.5 95.51 C 53.16 74.73 75.3 49.7 95.24 29.1 M 37.5 95.51 C 59.17 68.99 81.43 44.88 95.24 29.1 M 40.42 96.73 C 60.78 76.81 76.57 63.45 96.84 31.82 M 40.42 96.73 C 53.88 75.94 67.92 62.89 96.84 31.82 M 44 97.19 C 67.25 80.43 81.9 45.52 97.8 35.3 M 44 97.19 C 63.21 75.7 82.53 49.78 97.8 35.3 M 46.92 98.4 C 62.67 81.29 80.13 58.85 98.09 39.53 M 46.92 98.4 C 70.27 78.71 86.97 55.2 98.09 39.53 M 49.84 99.61 C 73.45 74.62 77.73 59.16 98.39 43.76 M 49.84 99.61 C 63.58 88.92 79.17 70.7 98.39 43.76 M 54.07 99.32 C 71.53 90.37 81.73 64.35 98.03 48.75 M 54.07 99.32 C 68.35 82.65 87.32 61.97 98.03 48.75 M 58.96 98.27 C 68.37 82.93 69.9 74.78 97.67 53.74 M 58.96 98.27 C 70.39 84.66 81.91 73.18 97.67 53.74 M 63.85 97.22 C 77 83.8 85.14 75.94 97.96 57.97 M 63.85 97.22 C 77.15 82.83 84.38 74.64 97.96 57.97 M 69.39 95.41 C 75.35 75.59 91.45 68.19 97.6 62.96 M 69.39 95.41 C 74.86 89.94 81.45 76.93 97.6 62.96 M 74.28 94.36 C 80.09 91.54 91.88 76.08 97.24 67.95 M 74.28 94.36 C 85.07 87.23 95.71 70.01 97.24 67.95 M 79.17 93.31 C 78.61 90.25 90.76 83.04 89.01 81.99 M 79.17 93.31 C 78.37 92.86 81.03 85.28 89.01 81.99" fill="none" stroke="Black" stroke-width="2" stroke-linecap="round" stroke-linejoin="round" stroke-miterlimit="10" class="atom" id="atom4_0" transform="translate(-106.24795342919752,-83.62190139016856)translate(-50,-50)"/><path d="M 1.75 71.1 C -2.21 62.77 -0.54 47.07 1.13 37.78 C 2.8 28.49 6.25 20.71 11.78 15.36 C 17.31 10.01 26.04 7.16 34.3 5.69 C 42.57 4.22 52.08 4.47 61.37 6.54 C 70.66 8.61 83.87 12.71 90.02 18.13 C 96.18 23.55 97.05 30.82 98.29 39.06 C 99.52 47.29 99.95 58.8 97.43 67.54 C 94.9 76.29 90.47 86.27 83.14 91.53 C 75.8 96.79 62.42 98.98 53.42 99.1 C 44.41 99.23 37.06 95.51 29.1 92.3 C 21.13 89.09 8.73 90.74 5.63 79.84 C 2.52 68.94 4.59 39.3 10.47 26.9 C 16.35 14.5 40.53 4.72 40.91 5.42 M 19.68 14.8 C 24.86 8.28 33.82 -0.17 42.24 -1.54 C 50.66 -2.92 62.49 1.96 70.21 6.54 C 77.93 11.13 83.04 18.62 88.57 25.99 C 94.1 33.35 102.21 43.66 103.41 50.76 C 104.61 57.86 100.27 61.97 95.76 68.58 C 91.25 75.19 84.15 84.83 76.33 90.44 C 68.52 96.05 57.22 101.67 48.88 102.24 C 40.55 102.82 33.78 99.41 26.32 93.89 C 18.85 88.36 8.55 76.76 4.11 69.1 C -0.33 61.44 -2.06 55.11 -0.32 47.95 C 1.42 40.8 12.7 32.44 14.55 26.16 C 16.39 19.89 11.06 13.09 10.74 10.32 C 10.41 7.56 12 8.08 12.58 9.56" fill="none" stroke="Black" stroke-width="2" stroke-linecap="round" stroke-linejoin="round" stroke-miterlimit="10" class="atom" id="atom4_1" transform="translate(-106.24795342919752,-83.62190139016856)translate(-50,-50)"/><circle cx="30.455593622751554" cy="-21.879369668384285" r="50" fill="white"/><path d="M 11.38 16.94 C 11.38 16.94 11.38 16.94 11.38 16.94 M 11.38 16.94 C 11.38 16.94 11.38 16.94 11.38 16.94 M 7.74 25.7 C 10.53 27.42 10.78 20.75 20.86 10.61 M 7.74 25.7 C 11.39 19.33 18.99 17.94 20.86 10.61 M 4.76 33.71 C 12.26 20.26 15.75 17.55 31 3.52 M 4.76 33.71 C 10.66 23.86 19.18 14.74 31 3.52 M 1.12 42.47 C 14.99 31.22 25.69 18.37 34.57 3.98 M 1.12 42.47 C 10.12 26.02 21.84 19.03 34.57 3.98 M 0.76 47.45 C 14.15 34.07 26.73 22.01 38.15 4.43 M 0.76 47.45 C 5.76 37.67 16.09 29.94 38.15 4.43 M 0.4 52.44 C 5.76 45.03 20.39 33.06 41.73 4.89 M 0.4 52.44 C 9.99 36.2 24.65 26.81 41.73 4.89 M 0.69 56.67 C 19.99 44.3 27.09 25.54 45.3 5.35 M 0.69 56.67 C 18.61 38.1 29.09 18.4 45.3 5.35 M 2.3 59.4 C 7.28 43.03 28.48 28.85 49.54 5.06 M 2.3 59.4 C 10.81 48.43 20.58 39.9 49.54 5.06 M 3.91 62.12 C 7.79 54.77 20.1 31.1 53.11 5.52 M 3.91 62.12 C 19.84 44.29 28.45 31.56 53.11 5.52 M 4.86 65.6 C 23.5 45.32 35.41 20.3 56.69 5.97 M 4.86 65.6 C 17.07 50.45 26.44 37.87 56.69 5.97 M 6.47 68.32 C 16.19 50.38 27.45 40.51 60.92 5.68 M 6.47 68.32 C 30.05 40.52 48.98 18.35 60.92 5.68 M 8.08 71.04 C 19.44 56.04 43.64 36.97 63.18 7.65 M 8.08 71.04 C 25.5 49.37 43.52 29.23 63.18 7.65 M 9.68 73.76 C 24.8 64.09 44.52 35.9 66.1 8.86 M 9.68 73.76 C 25.24 51.81 47.62 31.34 66.1 8.86 M 10.64 77.24 C 33.66 46.28 52.9 27.33 69.02 10.07 M 10.64 77.24 C 22.49 57.64 37.88 42.44 69.02 10.07 M 12.9 79.21 C 31.47 64.5 53.22 38.51 71.29 12.04 M 12.9 79.21 C 32.12 52.49 50.76 30.88 71.29 12.04 M 15.16 81.18 C 31.24 63.41 57.02 37.23 74.21 13.25 M 15.16 81.18 C 26.88 64.01 40.66 45.44 74.21 13.25 M 17.43 83.15 C 40.81 61.3 50.02 44.03 76.47 15.22 M 17.43 83.15 C 35.92 60.39 58.53 38.44 76.47 15.22 M 19.69 85.11 C 40.02 61.41 65.16 37.55 79.39 16.44 M 19.69 85.11 C 31.83 72.82 48.31 57.66 79.39 16.44 M 21.96 87.08 C 35.57 75.26 49.17 53.6 82.31 17.65 M 21.96 87.08 C 42.62 62.31 65.39 39.25 82.31 17.65 M 23.56 89.81 C 33.98 73.58 62.65 41.41 84.58 19.62 M 23.56 89.81 C 47.18 61.93 67.07 40.17 84.58 19.62 M 25.83 91.77 C 36.35 81.57 51.21 63.37 86.84 21.59 M 25.83 91.77 C 47.72 69.28 63.24 48.12 86.84 21.59 M 28.09 93.74 C 51.41 73.8 62.05 46.78 88.45 24.31 M 28.09 93.74 C 49.09 64.86 74.17 40.4 88.45 24.31 M 30.36 95.71 C 50.33 66.09 70.73 38.83 90.71 26.28 M 30.36 95.71 C 56.09 67.55 74.56 44.3 90.71 26.28 M 33.93 96.17 C 43.61 78.75 56.13 68.03 92.32 29 M 33.93 96.17 C 44.99 80.03 61.4 66.25 92.32 29 M 37.51 96.63 C 54.44 75.04 76.25 50.29 94.59 30.97 M 37.51 96.63 C 58.68 71.11 80.28 47.38 94.59 30.97 M 41.09 97.09 C 60 78 75.46 63.83 96.19 33.69 M 41.09 97.09 C 54.25 77.99 67.87 64.65 96.19 33.69 M 44.01 98.3 C 66.55 79.84 82.65 47.78 98.46 35.66 M 44.01 98.3 C 63.61 76.21 83.27 50.83 98.46 35.66 M 47.58 98.76 C 64.96 79.51 83.64 56.25 100.07 38.38 M 47.58 98.76 C 70.5 77.76 88.44 53.91 100.07 38.38 M 51.16 99.22 C 73.53 75.2 81.35 58.31 102.33 40.35 M 51.16 99.22 C 65.4 86.72 81 68.57 102.33 40.35 M 54.73 99.68 C 71.38 88.77 82.66 65.08 101.31 46.09 M 54.73 99.68 C 70.64 81.23 90.02 59.79 101.31 46.09 M 58.31 100.14 C 68.29 85.21 72.33 75.78 100.3 51.83 M 58.31 100.14 C 70.19 85.99 82.2 73.49 100.3 51.83 M 61.23 101.35 C 73.95 88.1 82.91 78.91 99.28 57.58 M 61.23 101.35 C 74.87 86.34 83.87 76.09 99.28 57.58 M 68.74 97.28 C 76.24 78.89 91.36 69.84 97.61 64.07 M 68.74 97.28 C 74.7 91.05 81.5 79.16 97.61 64.07 M 76.91 92.45 C 79.83 92.32 86.78 82.97 89.38 78.12 M 76.91 92.45 C 83.1 89.31 89.16 78.79 89.38 78.12" fill="none" stroke="Black" stroke-width="2" stroke-linecap="round" stroke-linejoin="round" stroke-miterlimit="10" class="atom" id="atom5_0" transform="translate(30.455593622751554,-21.879369668384285)translate(-50,-50)"/><path d="M -0.59 46.76 C -0.53 37.79 5.87 24.3 11.37 16.95 C 16.88 9.59 24.5 4.7 32.46 2.6 C 40.42 0.51 50.73 1.84 59.16 4.38 C 67.59 6.92 76.09 12.03 83.02 17.86 C 89.95 23.69 98.41 31.66 100.74 39.33 C 103.06 47.01 99.9 55.86 96.97 63.89 C 94.05 71.92 89.33 81.41 83.19 87.5 C 77.05 93.6 68.99 99.16 60.13 100.46 C 51.27 101.77 38.24 99.26 30.02 95.34 C 21.81 91.42 15.95 83.53 10.86 76.94 C 5.77 70.35 -0.83 65.03 -0.5 55.82 C -0.17 46.61 7.77 29.53 12.86 21.68 C 17.94 13.83 29.59 8.03 30.01 8.74 M 26.39 8.96 C 32.74 3.67 42.7 -1.83 51.34 -1.64 C 59.99 -1.45 71.14 4.37 78.27 10.08 C 85.4 15.79 90.02 24.45 94.1 32.61 C 98.19 40.77 103.33 51.5 102.78 59.02 C 102.23 66.54 96.59 71.68 90.82 77.74 C 85.05 83.8 76.61 91.51 68.14 95.39 C 59.67 99.27 48.29 102.25 40 101.02 C 31.7 99.79 24.82 94.66 18.37 88.03 C 11.92 81.4 4.02 69.55 1.28 61.24 C -1.46 52.93 -1.24 45.42 1.92 38.19 C 5.08 30.96 17.28 23.27 20.24 17.84 C 23.2 12.41 19.54 7.69 19.68 5.61 C 19.82 3.52 20.63 3.98 21.08 5.33" fill="none" stroke="Black" stroke-width="2" stroke-linecap="round" stroke-linejoin="round" stroke-miterlimit="10" class="atom" id="atom5_1" transform="translate(30.455593622751554,-21.879369668384285)translate(-50,-50)"/><circle cx="45.33676618369445" cy="127.3806407269372" r="50" fill="white"/><path d="M 12.03 15.07 C 12.03 15.07 12.03 15.07 12.03 15.07 M 12.03 15.07 C 12.03 15.07 12.03 15.07 12.03 15.07 M 5.21 29.02 C 8.43 31.85 8.28 23.53 20.3 11.66 M 5.21 29.02 C 9.4 21.45 18.77 20.48 20.3 11.66 M 2.32 38.43 C 9.93 23.26 12.18 22.41 28.57 8.24 M 2.32 38.43 C 7.42 28.5 16.01 19.52 28.57 8.24 M 2.06 44.83 C 16.58 34.41 26.88 21.85 35.52 6.34 M 2.06 44.83 C 10.33 27.2 22.22 22.18 35.52 6.34 M 2.46 50.47 C 16.31 37.24 29.1 25.75 40.51 6.7 M 2.46 50.47 C 6.46 40.45 17.59 33.19 40.51 6.7 M 2.19 56.87 C 6.27 50.52 22.71 38.1 45.49 7.06 M 2.19 56.87 C 11.37 39.38 27.34 30.99 45.49 7.06 M 2.59 62.51 C 24.89 49.99 30.9 28.94 50.48 7.42 M 2.59 62.51 C 22.56 42.15 32.6 20.4 50.48 7.42 M 2.98 68.16 C 7.34 48.93 33.34 32.63 56.12 7.03 M 2.98 68.16 C 12.18 55.92 23.2 46.87 56.12 7.03 M 4.03 73.05 C 7.01 65.35 21.6 35.88 61.77 6.63 M 4.03 73.05 C 23.26 51.56 32.66 36.99 61.77 6.63 M 5.74 77.18 C 27.26 53.57 39.98 23.84 65.44 8.5 M 5.74 77.18 C 19.54 59.49 29.78 45.32 65.44 8.5 M 7.45 81.31 C 18.06 60.18 30.76 49.68 69.77 9.62 M 7.45 81.31 C 35.03 48.5 56.37 23.43 69.77 9.62 M 11.12 83.18 C 22.69 66.93 51.65 45.31 73.45 11.48 M 11.12 83.18 C 30.75 58.42 51.03 35.87 73.45 11.48 M 14.8 85.05 C 31.75 76.17 54.73 42.38 77.12 13.35 M 14.8 85.05 C 31.05 60.48 56.6 38.14 77.12 13.35 M 18.47 86.92 C 43.6 52.25 63.54 33.54 81.45 14.47 M 18.47 86.92 C 30.73 64.75 47.66 48.63 81.45 14.47 M 22.15 88.79 C 42.3 74.75 66.62 45.49 85.13 16.34 M 22.15 88.79 C 42.4 59.11 62.06 36.28 85.13 16.34 M 25.82 90.66 C 42.18 72.65 71.49 43.55 88.8 18.21 M 25.82 90.66 C 37.77 71.83 52.5 51.27 88.8 18.21 M 29.5 92.53 C 56.23 68.62 64.01 50.77 92.48 20.08 M 29.5 92.53 C 49.05 68.02 74.06 44.66 92.48 20.08 M 33.83 93.64 C 53.56 70.53 79.69 47.21 94.19 24.21 M 33.83 93.64 C 46.15 81.75 64.23 66.02 94.19 24.21 M 38.16 94.76 C 50.4 85.67 62.69 63.52 95.89 28.34 M 38.16 94.76 C 58.03 70.53 80.79 48.54 95.89 28.34 M 42.49 95.87 C 48.84 83.34 79.27 49.42 97.6 32.48 M 42.49 95.87 C 64.1 69.95 80.82 52.21 97.6 32.48 M 46.16 97.74 C 54.08 90.98 67.73 73.8 99.31 36.61 M 46.16 97.74 C 66.38 78.11 78.12 60.22 99.31 36.61 M 50.5 98.86 C 71.53 84.61 75.33 60.54 100.36 41.5 M 50.5 98.86 C 66.8 74.08 88.35 55.13 100.36 41.5 M 54.83 99.97 C 69.47 75.32 84.21 53.33 100.75 47.14 M 54.83 99.97 C 75.77 77.66 86.75 62.35 100.75 47.14 M 61.78 98.07 C 65.38 85.67 72.65 82.22 100.49 53.54 M 61.78 98.07 C 68.37 86.73 81.88 77.98 100.49 53.54 M 68.08 96.92 C 73.83 86.49 86.32 72.57 100.23 59.94 M 68.08 96.92 C 80.89 81.89 94.03 68.26 100.23 59.94 M 75.04 95.02 C 87.34 86.11 93.68 83.62 98 68.6 M 75.04 95.02 C 80.05 84.81 86.03 81.04 98 68.6" fill="none" stroke="Black" stroke-width="2" stroke-linecap="round" stroke-linejoin="round" stroke-miterlimit="10" class="atom" id="atom6_0" transform="translate(45.33676618369445,127.3806407269372)translate(-50,-50)"/><path d="M 1.75 71.1 C -2.21 62.77 -0.54 47.07 1.13 37.78 C 2.8 28.49 6.25 20.71 11.78 15.36 C 17.31 10.01 26.04 7.16 34.3 5.69 C 42.57 4.22 52.08 4.47 61.37 6.54 C 70.66 8.61 83.87 12.71 90.02 18.13 C 96.18 23.55 97.05 30.82 98.29 39.06 C 99.52 47.29 99.95 58.8 97.43 67.54 C 94.9 76.29 90.47 86.27 83.14 91.53 C 75.8 96.79 62.42 98.98 53.42 99.1 C 44.41 99.23 37.06 95.51 29.1 92.3 C 21.13 89.09 8.73 90.74 5.63 79.84 C 2.52 68.94 4.59 39.3 10.47 26.9 C 16.35 14.5 40.53 4.72 40.91 5.42 M 19.68 14.8 C 24.86 8.28 33.82 -0.17 42.24 -1.54 C 50.66 -2.92 62.49 1.96 70.21 6.54 C 77.93 11.13 83.04 18.62 88.57 25.99 C 94.1 33.35 102.21 43.66 103.41 50.76 C 104.61 57.86 100.27 61.97 95.76 68.58 C 91.25 75.19 84.15 84.83 76.33 90.44 C 68.52 96.05 57.22 101.67 48.88 102.24 C 40.55 102.82 33.78 99.41 26.32 93.89 C 18.85 88.36 8.55 76.76 4.11 69.1 C -0.33 61.44 -2.06 55.11 -0.32 47.95 C 1.42 40.8 12.7 32.44 14.55 26.16 C 16.39 19.89 11.06 13.09 10.74 10.32 C 10.41 7.56 12 8.08 12.58 9.56" fill="none" stroke="Black" stroke-width="2" stroke-linecap="round" stroke-linejoin="round" stroke-miterlimit="10" class="atom" id="atom6_1" transform="translate(45.33676618369445,127.3806407269372)translate(-50,-50)"/><circle cx="182.04031323564357" cy="189.1231724487214" r="50" fill="white"/><path d="M 12.03 15.07 C 12.03 15.07 12.03 15.07 12.03 15.07 M 12.03 15.07 C 12.03 15.07 12.03 15.07 12.03 15.07 M 7.08 25.34 C 9.49 28.15 9.02 21.46 18.23 12.51 M 7.08 25.34 C 10.04 19.48 17.47 19.27 18.23 12.51 M 2.13 35.61 C 8.58 21.53 9.76 21.92 24.43 9.95 M 2.13 35.61 C 6.11 26.97 13.44 19.43 24.43 9.95 M 3.08 39.09 C 15.58 31.22 23.77 21.08 30.63 7.39 M 3.08 39.09 C 9.19 23.87 19.1 21.13 30.63 7.39 M 2.72 44.08 C 14.89 32.71 25.9 23.26 35.52 6.34 M 2.72 44.08 C 5.73 35.62 15.69 29.7 35.52 6.34 M 3.01 48.31 C 5.19 44.16 19.74 33.9 39.1 6.8 M 3.01 48.31 C 10.05 33.25 23.82 27.39 39.1 6.8 M 3.31 52.54 C 23.25 42.69 26.93 24.33 43.33 6.5 M 3.31 52.54 C 20.59 35.55 27.96 16.87 43.33 6.5 M 2.95 57.53 C 5.2 40.78 29.07 26.92 46.91 6.96 M 2.95 57.53 C 10.47 47.35 19.6 40.47 46.91 6.96 M 3.25 61.76 C 4.24 56.87 16.4 30.2 50.48 7.42 M 3.25 61.76 C 19.6 43.62 26.21 32.25 50.48 7.42 M 3.54 65.99 C 22.38 45.92 32.23 19.49 54.71 7.12 M 3.54 65.99 C 15.54 50.75 23.73 38.93 54.71 7.12 M 2.52 71.73 C 11.71 52.18 22.95 43.36 58.29 7.58 M 2.52 71.73 C 27.58 41.98 46.43 19.77 58.29 7.58 M 4.13 74.46 C 14.69 59.58 42.48 39.3 62.52 7.29 M 4.13 74.46 C 22.36 51.31 41.32 30.28 62.52 7.29 M 5.08 77.93 C 21.5 69.56 43.98 36.36 65.44 8.5 M 5.08 77.93 C 20.74 54.2 45.64 32.6 65.44 8.5 M 6.69 80.66 C 31.28 46.55 50.71 28.43 68.36 9.71 M 6.69 80.66 C 18.62 58.9 35.23 43.14 68.36 9.71 M 9.61 81.87 C 29.33 68.25 53.23 39.47 71.28 10.93 M 9.61 81.87 C 29.46 52.73 48.66 30.42 71.28 10.93 M 11.88 83.84 C 28.03 66.09 57.13 37.24 74.2 12.14 M 11.88 83.84 C 23.68 65.21 38.26 44.83 74.2 12.14 M 14.8 85.05 C 41.34 61.35 48.93 43.72 77.12 13.35 M 14.8 85.05 C 34.13 60.8 58.92 37.69 77.12 13.35 M 17.72 86.27 C 38.22 62.31 65.11 38.12 80.04 14.57 M 17.72 86.27 C 30.52 73.98 49 57.8 80.04 14.57 M 19.98 88.23 C 33.7 77.68 47.33 53.97 82.96 15.78 M 19.98 88.23 C 41.76 61.87 66.27 37.85 82.96 15.78 M 22.9 89.45 C 31.26 74.03 64.03 37.42 85.88 16.99 M 22.9 89.45 C 47.57 60.17 67.23 39.05 85.88 16.99 M 25.82 90.66 C 35.83 81.72 51.64 62.08 88.8 18.21 M 25.82 90.66 C 49.16 67.37 64.03 45.88 88.8 18.21 M 28.09 92.63 C 53.34 72.49 61.82 43.05 91.72 19.42 M 28.09 92.63 C 49.5 61.61 76.39 36.51 91.72 19.42 M 31.01 93.84 C 50.81 62.1 71.23 33.57 92.68 22.9 M 31.01 93.84 C 57.86 64.87 75.06 42.42 92.68 22.9 M 33.93 95.06 C 42.59 76.69 55.08 67.25 94.28 25.62 M 33.93 95.06 C 44.91 77.79 63.05 63.71 94.28 25.62 M 37.5 95.51 C 53.16 74.73 75.3 49.7 95.24 29.1 M 37.5 95.51 C 59.17 68.99 81.43 44.88 95.24 29.1 M 40.42 96.73 C 60.78 76.81 76.57 63.45 96.84 31.82 M 40.42 96.73 C 53.88 75.94 67.92 62.89 96.84 31.82 M 44 97.19 C 67.25 80.43 81.9 45.52 97.8 35.3 M 44 97.19 C 63.21 75.7 82.53 49.78 97.8 35.3 M 46.92 98.4 C 62.67 81.29 80.13 58.85 98.09 39.53 M 46.92 98.4 C 70.27 78.71 86.97 55.2 98.09 39.53 M 49.84 99.61 C 73.45 74.62 77.73 59.16 98.39 43.76 M 49.84 99.61 C 63.58 88.92 79.17 70.7 98.39 43.76 M 54.07 99.32 C 71.53 90.37 81.73 64.35 98.03 48.75 M 54.07 99.32 C 68.35 82.65 87.32 61.97 98.03 48.75 M 58.96 98.27 C 68.37 82.93 69.9 74.78 97.67 53.74 M 58.96 98.27 C 70.39 84.66 81.91 73.18 97.67 53.74 M 63.85 97.22 C 77 83.8 85.14 75.94 97.96 57.97 M 63.85 97.22 C 77.15 82.83 84.38 74.64 97.96 57.97 M 69.39 95.41 C 75.35 75.59 91.45 68.19 97.6 62.96 M 69.39 95.41 C 74.86 89.94 81.45 76.93 97.6 62.96 M 74.28 94.36 C 80.09 91.54 91.88 76.08 97.24 67.95 M 74.28 94.36 C 85.07 87.23 95.71 70.01 97.24 67.95 M 79.17 93.31 C 78.61 90.25 90.76 83.04 89.01 81.99 M 79.17 93.31 C 78.37 92.86 81.03 85.28 89.01 81.99" fill="none" stroke="Black" stroke-width="2" stroke-linecap="round" stroke-linejoin="round" stroke-miterlimit="10" class="atom" id="atom7_0" transform="translate(182.04031323564357,189.1231724487214)translate(-50,-50)"/><path d="M 1.75 71.1 C -2.21 62.77 -0.54 47.07 1.13 37.78 C 2.8 28.49 6.25 20.71 11.78 15.36 C 17.31 10.01 26.04 7.16 34.3 5.69 C 42.57 4.22 52.08 4.47 61.37 6.54 C 70.66 8.61 83.87 12.71 90.02 18.13 C 96.18 23.55 97.05 30.82 98.29 39.06 C 99.52 47.29 99.95 58.8 97.43 67.54 C 94.9 76.29 90.47 86.27 83.14 91.53 C 75.8 96.79 62.42 98.98 53.42 99.1 C 44.41 99.23 37.06 95.51 29.1 92.3 C 21.13 89.09 8.73 90.74 5.63 79.84 C 2.52 68.94 4.59 39.3 10.47 26.9 C 16.35 14.5 40.53 4.72 40.91 5.42 M 19.68 14.8 C 24.86 8.28 33.82 -0.17 42.24 -1.54 C 50.66 -2.92 62.49 1.96 70.21 6.54 C 77.93 11.13 83.04 18.62 88.57 25.99 C 94.1 33.35 102.21 43.66 103.41 50.76 C 104.61 57.86 100.27 61.97 95.76 68.58 C 91.25 75.19 84.15 84.83 76.33 90.44 C 68.52 96.05 57.22 101.67 48.88 102.24 C 40.55 102.82 33.78 99.41 26.32 93.89 C 18.85 88.36 8.55 76.76 4.11 69.1 C -0.33 61.44 -2.06 55.11 -0.32 47.95 C 1.42 40.8 12.7 32.44 14.55 26.16 C 16.39 19.89 11.06 13.09 10.74 10.32 C 10.41 7.56 12 8.08 12.58 9.56" fill="none" stroke="Black" stroke-width="2" stroke-linecap="round" stroke-linejoin="round" stroke-miterlimit="10" class="atom" id="atom7_1" transform="translate(182.04031323564357,189.1231724487214)translate(-50,-50)"/><circle cx="303.86268772664977" cy="101.60569377518426" r="50" fill="white"/><path d="M 12.03 15.07 C 12.03 15.07 12.03 15.07 12.03 15.07 M 12.03 15.07 C 12.03 15.07 12.03 15.07 12.03 15.07 M 5.21 29.02 C 8.43 31.85 8.28 23.53 20.3 11.66 M 5.21 29.02 C 9.4 21.45 18.77 20.48 20.3 11.66 M 2.32 38.43 C 9.93 23.26 12.18 22.41 28.57 8.24 M 2.32 38.43 C 7.42 28.5 16.01 19.52 28.57 8.24 M 2.06 44.83 C 16.58 34.41 26.88 21.85 35.52 6.34 M 2.06 44.83 C 10.33 27.2 22.22 22.18 35.52 6.34 M 2.46 50.47 C 16.31 37.24 29.1 25.75 40.51 6.7 M 2.46 50.47 C 6.46 40.45 17.59 33.19 40.51 6.7 M 2.19 56.87 C 6.27 50.52 22.71 38.1 45.49 7.06 M 2.19 56.87 C 11.37 39.38 27.34 30.99 45.49 7.06 M 2.59 62.51 C 24.89 49.99 30.9 28.94 50.48 7.42 M 2.59 62.51 C 22.56 42.15 32.6 20.4 50.48 7.42 M 2.98 68.16 C 7.34 48.93 33.34 32.63 56.12 7.03 M 2.98 68.16 C 12.18 55.92 23.2 46.87 56.12 7.03 M 4.03 73.05 C 7.01 65.35 21.6 35.88 61.77 6.63 M 4.03 73.05 C 23.26 51.56 32.66 36.99 61.77 6.63 M 5.74 77.18 C 27.26 53.57 39.98 23.84 65.44 8.5 M 5.74 77.18 C 19.54 59.49 29.78 45.32 65.44 8.5 M 7.45 81.31 C 18.06 60.18 30.76 49.68 69.77 9.62 M 7.45 81.31 C 35.03 48.5 56.37 23.43 69.77 9.62 M 11.12 83.18 C 22.69 66.93 51.65 45.31 73.45 11.48 M 11.12 83.18 C 30.75 58.42 51.03 35.87 73.45 11.48 M 14.8 85.05 C 31.75 76.17 54.73 42.38 77.12 13.35 M 14.8 85.05 C 31.05 60.48 56.6 38.14 77.12 13.35 M 18.47 86.92 C 43.6 52.25 63.54 33.54 81.45 14.47 M 18.47 86.92 C 30.73 64.75 47.66 48.63 81.45 14.47 M 22.15 88.79 C 42.3 74.75 66.62 45.49 85.13 16.34 M 22.15 88.79 C 42.4 59.11 62.06 36.28 85.13 16.34 M 25.82 90.66 C 42.18 72.65 71.49 43.55 88.8 18.21 M 25.82 90.66 C 37.77 71.83 52.5 51.27 88.8 18.21 M 29.5 92.53 C 56.23 68.62 64.01 50.77 92.48 20.08 M 29.5 92.53 C 49.05 68.02 74.06 44.66 92.48 20.08 M 33.83 93.64 C 53.56 70.53 79.69 47.21 94.19 24.21 M 33.83 93.64 C 46.15 81.75 64.23 66.02 94.19 24.21 M 38.16 94.76 C 50.4 85.67 62.69 63.52 95.89 28.34 M 38.16 94.76 C 58.03 70.53 80.79 48.54 95.89 28.34 M 42.49 95.87 C 48.84 83.34 79.27 49.42 97.6 32.48 M 42.49 95.87 C 64.1 69.95 80.82 52.21 97.6 32.48 M 46.16 97.74 C 54.08 90.98 67.73 73.8 99.31 36.61 M 46.16 97.74 C 66.38 78.11 78.12 60.22 99.31 36.61 M 50.5 98.86 C 71.53 84.61 75.33 60.54 100.36 41.5 M 50.5 98.86 C 66.8 74.08 88.35 55.13 100.36 41.5 M 54.83 99.97 C 69.47 75.32 84.21 53.33 100.75 47.14 M 54.83 99.97 C 75.77 77.66 86.75 62.35 100.75 47.14 M 61.78 98.07 C 65.38 85.67 72.65 82.22 100.49 53.54 M 61.78 98.07 C 68.37 86.73 81.88 77.98 100.49 53.54 M 68.08 96.92 C 73.83 86.49 86.32 72.57 100.23 59.94 M 68.08 96.92 C 80.89 81.89 94.03 68.26 100.23 59.94 M 75.04 95.02 C 87.34 86.11 93.68 83.62 98 68.6 M 75.04 95.02 C 80.05 84.81 86.03 81.04 98 68.6" fill="none" stroke="Black" stroke-width="2" stroke-linecap="round" stroke-linejoin="round" stroke-miterlimit="10" class="atom" id="atom8_0" transform="translate(303.86268772664977,101.60569377518426)translate(-50,-50)"/><path d="M 1.75 71.1 C -2.21 62.77 -0.54 47.07 1.13 37.78 C 2.8 28.49 6.25 20.71 11.78 15.36 C 17.31 10.01 26.04 7.16 34.3 5.69 C 42.57 4.22 52.08 4.47 61.37 6.54 C 70.66 8.61 83.87 12.71 90.02 18.13 C 96.18 23.55 97.05 30.82 98.29 39.06 C 99.52 47.29 99.95 58.8 97.43 67.54 C 94.9 76.29 90.47 86.27 83.14 91.53 C 75.8 96.79 62.42 98.98 53.42 99.1 C 44.41 99.23 37.06 95.51 29.1 92.3 C 21.13 89.09 8.73 90.74 5.63 79.84 C 2.52 68.94 4.59 39.3 10.47 26.9 C 16.35 14.5 40.53 4.72 40.91 5.42 M 19.68 14.8 C 24.86 8.28 33.82 -0.17 42.24 -1.54 C 50.66 -2.92 62.49 1.96 70.21 6.54 C 77.93 11.13 83.04 18.62 88.57 25.99 C 94.1 33.35 102.21 43.66 103.41 50.76 C 104.61 57.86 100.27 61.97 95.76 68.58 C 91.25 75.19 84.15 84.83 76.33 90.44 C 68.52 96.05 57.22 101.67 48.88 102.24 C 40.55 102.82 33.78 99.41 26.32 93.89 C 18.85 88.36 8.55 76.76 4.11 69.1 C -0.33 61.44 -2.06 55.11 -0.32 47.95 C 1.42 40.8 12.7 32.44 14.55 26.16 C 16.39 19.89 11.06 13.09 10.74 10.32 C 10.41 7.56 12 8.08 12.58 9.56" fill="none" stroke="Black" stroke-width="2" stroke-linecap="round" stroke-linejoin="round" stroke-miterlimit="10" class="atom" id="atom8_1" transform="translate(303.86268772664977,101.60569377518426)translate(-50,-50)"/><circle cx="288.981515165707" cy="-47.65431662013712" r="50" fill="white"/><path d="M 11.27 17.06 C 11.27 17.06 11.27 17.06 11.27 17.06 M 11.27 17.06 C 11.27 17.06 11.27 17.06 11.27 17.06 M 7.08 27.99 C 10.64 28.78 11.68 21.2 24.13 8.37 M 7.08 27.99 C 12.11 20.24 20.96 17.41 24.13 8.37 M 2.22 39.67 C 11.24 24.71 16.16 20.35 33.71 3.44 M 2.22 39.67 C 9.66 28.06 19.84 17.03 33.71 3.44 M 0.65 47.58 C 16.11 34.37 28.45 19.64 38.7 3.8 M 0.65 47.58 C 11.3 29.28 24.56 20.52 38.7 3.8 M 0.39 53.97 C 15.7 38.44 30.28 24.08 43.69 4.16 M 0.39 53.97 C 6.56 42.5 18.22 33.24 43.69 4.16 M 2.09 58.11 C 8.84 49.11 24.84 35.56 48.67 4.52 M 2.09 58.11 C 13.25 40.08 29.52 28.85 48.67 4.52 M 4.46 61.49 C 25.13 47.55 33.59 27.23 53.66 4.88 M 4.46 61.49 C 23.94 41 35.97 19.51 53.66 4.88 M 6.16 65.62 C 12.5 47.67 35.06 31.92 59.3 4.49 M 6.16 65.62 C 15.79 53.31 26.77 43.39 59.3 4.49 M 7.87 69.75 C 12.92 60.83 26.61 35.58 62.98 6.36 M 7.87 69.75 C 25.41 50.07 35.58 35.54 62.98 6.36 M 10.23 73.13 C 30.34 50.99 43.8 24.19 66.65 8.23 M 10.23 73.13 C 23.45 56.68 33.92 42.83 66.65 8.23 M 11.94 77.27 C 22.38 58.53 34.37 47.82 69.67 10.85 M 11.94 77.27 C 36.78 47.96 56.96 24.36 69.67 10.85 M 14.3 80.65 C 26.72 64.28 52.09 43.86 73.35 12.72 M 14.3 80.65 C 33.1 57.38 52.45 35.72 73.35 12.72 M 17.32 83.27 C 33.33 72.71 53.89 43.55 77.02 14.59 M 17.32 83.27 C 33.89 59.96 57.37 38.23 77.02 14.59 M 20.34 85.89 C 44.17 54.08 64.16 34.25 80.7 16.46 M 20.34 85.89 C 32.68 65.69 48.56 49.94 80.7 16.46 M 23.36 88.52 C 42.57 73.15 64.95 46.45 83.72 19.09 M 23.36 88.52 C 43.21 60.99 62.54 38.59 83.72 19.09 M 26.38 91.14 C 42.87 72.85 69.07 46.18 86.73 21.71 M 26.38 91.14 C 38.39 73.59 52.48 54.67 86.73 21.71 M 28.74 94.52 C 52.51 72.25 62.1 54.55 89.1 25.09 M 28.74 94.52 C 47.67 71.25 70.71 48.81 89.1 25.09 M 31.76 97.15 C 52.08 73.44 77.22 49.58 91.46 28.47 M 31.76 97.15 C 43.9 84.85 60.38 69.69 91.46 28.47 M 36.75 97.51 C 49.64 86.42 62.56 65.54 94.48 31.09 M 36.75 97.51 C 56.48 73.78 78.37 51.74 94.48 31.09 M 41.08 98.62 C 50.1 84.28 77.21 53.91 96.84 34.47 M 41.08 98.62 C 62.68 72.98 80.61 53.48 96.84 34.47 M 46.06 98.98 C 54.9 90.57 68.04 74.35 99.2 37.85 M 46.06 98.98 C 65.45 79.4 78.48 61.12 99.2 37.85 M 50.39 100.1 C 71.02 83.71 78.77 60.03 102.22 40.47 M 50.39 100.1 C 68.2 75.06 89.96 54.41 102.22 40.47 M 54.73 101.21 C 70.07 77.67 85.51 56.13 101.31 47.63 M 54.73 101.21 C 75.22 78.97 88.24 61.99 101.31 47.63 M 60.37 100.82 C 65.56 88.65 73.5 83.2 99.73 55.53 M 60.37 100.82 C 67.52 89.76 79.85 80.65 99.73 55.53 M 70.6 95.14 C 75.93 85.99 86.34 74.34 97.5 64.2 M 70.6 95.14 C 81.24 82.88 92.09 71.51 97.5 64.2 M 80.84 89.46 C 84.61 87.07 86.23 86.83 86.74 82.67 M 80.84 89.46 C 82.05 86.66 83.62 85.9 86.74 82.67" fill="none" stroke="Black" stroke-width="2" stroke-linecap="round" stroke-linejoin="round" stroke-miterlimit="10" class="atom" id="atom9_0" transform="translate(288.981515165707,-47.65431662013712)translate(-50,-50)"/><path d="M -0.59 46.76 C -0.53 37.79 5.87 24.3 11.37 16.95 C 16.88 9.59 24.5 4.7 32.46 2.6 C 40.42 0.51 50.73 1.84 59.16 4.38 C 67.59 6.92 76.09 12.03 83.02 17.86 C 89.95 23.69 98.41 31.66 100.74 39.33 C 103.06 47.01 99.9 55.86 96.97 63.89 C 94.05 71.92 89.33 81.41 83.19 87.5 C 77.05 93.6 68.99 99.16 60.13 100.46 C 51.27 101.77 38.24 99.26 30.02 95.34 C 21.81 91.42 15.95 83.53 10.86 76.94 C 5.77 70.35 -0.83 65.03 -0.5 55.82 C -0.17 46.61 7.77 29.53 12.86 21.68 C 17.94 13.83 29.59 8.03 30.01 8.74 M 26.39 8.96 C 32.74 3.67 42.7 -1.83 51.34 -1.64 C 59.99 -1.45 71.14 4.37 78.27 10.08 C 85.4 15.79 90.02 24.45 94.1 32.61 C 98.19 40.77 103.33 51.5 102.78 59.02 C 102.23 66.54 96.59 71.68 90.82 77.74 C 85.05 83.8 76.61 91.51 68.14 95.39 C 59.67 99.27 48.29 102.25 40 101.02 C 31.7 99.79 24.82 94.66 18.37 88.03 C 11.92 81.4 4.02 69.55 1.28 61.24 C -1.46 52.93 -1.24 45.42 1.92 38.19 C 5.08 30.96 17.28 23.27 20.24 17.84 C 23.2 12.41 19.54 7.69 19.68 5.61 C 19.82 3.52 20.63 3.98 21.08 5.33" fill="none" stroke="Black" stroke-width="2" stroke-linecap="round" stroke-linejoin="round" stroke-miterlimit="10" class="atom" id="atom9_1" transform="translate(288.981515165707,-47.65431662013712)translate(-50,-50)"/><circle cx="152.27796811375782" cy="-109.3968483419214" r="50" fill="white"/><path d="M 12.03 15.07 C 12.03 15.07 12.03 15.07 12.03 15.07 M 12.03 15.07 C 12.03 15.07 12.03 15.07 12.03 15.07 M 5.21 29.02 C 8.43 31.85 8.28 23.53 20.3 11.66 M 5.21 29.02 C 9.4 21.45 18.77 20.48 20.3 11.66 M 2.32 38.43 C 9.93 23.26 12.18 22.41 28.57 8.24 M 2.32 38.43 C 7.42 28.5 16.01 19.52 28.57 8.24 M 2.06 44.83 C 16.58 34.41 26.88 21.85 35.52 6.34 M 2.06 44.83 C 10.33 27.2 22.22 22.18 35.52 6.34 M 2.46 50.47 C 16.31 37.24 29.1 25.75 40.51 6.7 M 2.46 50.47 C 6.46 40.45 17.59 33.19 40.51 6.7 M 2.19 56.87 C 6.27 50.52 22.71 38.1 45.49 7.06 M 2.19 56.87 C 11.37 39.38 27.34 30.99 45.49 7.06 M 2.59 62.51 C 24.89 49.99 30.9 28.94 50.48 7.42 M 2.59 62.51 C 22.56 42.15 32.6 20.4 50.48 7.42 M 2.98 68.16 C 7.34 48.93 33.34 32.63 56.12 7.03 M 2.98 68.16 C 12.18 55.92 23.2 46.87 56.12 7.03 M 4.03 73.05 C 7.01 65.35 21.6 35.88 61.77 6.63 M 4.03 73.05 C 23.26 51.56 32.66 36.99 61.77 6.63 M 5.74 77.18 C 27.26 53.57 39.98 23.84 65.44 8.5 M 5.74 77.18 C 19.54 59.49 29.78 45.32 65.44 8.5 M 7.45 81.31 C 18.06 60.18 30.76 49.68 69.77 9.62 M 7.45 81.31 C 35.03 48.5 56.37 23.43 69.77 9.62 M 11.12 83.18 C 22.69 66.93 51.65 45.31 73.45 11.48 M 11.12 83.18 C 30.75 58.42 51.03 35.87 73.45 11.48 M 14.8 85.05 C 31.75 76.17 54.73 42.38 77.12 13.35 M 14.8 85.05 C 31.05 60.48 56.6 38.14 77.12 13.35 M 18.47 86.92 C 43.6 52.25 63.54 33.54 81.45 14.47 M 18.47 86.92 C 30.73 64.75 47.66 48.63 81.45 14.47 M 22.15 88.79 C 42.3 74.75 66.62 45.49 85.13 16.34 M 22.15 88.79 C 42.4 59.11 62.06 36.28 85.13 16.34 M 25.82 90.66 C 42.18 72.65 71.49 43.55 88.8 18.21 M 25.82 90.66 C 37.77 71.83 52.5 51.27 88.8 18.21 M 29.5 92.53 C 56.23 68.62 64.01 50.77 92.48 20.08 M 29.5 92.53 C 49.05 68.02 74.06 44.66 92.48 20.08 M 33.83 93.64 C 53.56 70.53 79.69 47.21 94.19 24.21 M 33.83 93.64 C 46.15 81.75 64.23 66.02 94.19 24.21 M 38.16 94.76 C 50.4 85.67 62.69 63.52 95.89 28.34 M 38.16 94.76 C 58.03 70.53 80.79 48.54 95.89 28.34 M 42.49 95.87 C 48.84 83.34 79.27 49.42 97.6 32.48 M 42.49 95.87 C 64.1 69.95 80.82 52.21 97.6 32.48 M 46.16 97.74 C 54.08 90.98 67.73 73.8 99.31 36.61 M 46.16 97.74 C 66.38 78.11 78.12 60.22 99.31 36.61 M 50.5 98.86 C 71.53 84.61 75.33 60.54 100.36 41.5 M 50.5 98.86 C 66.8 74.08 88.35 55.13 100.36 41.5 M 54.83 99.97 C 69.47 75.32 84.21 53.33 100.75 47.14 M 54.83 99.97 C 75.77 77.66 86.75 62.35 100.75 47.14 M 61.78 98.07 C 65.38 85.67 72.65 82.22 100.49 53.54 M 61.78 98.07 C 68.37 86.73 81.88 77.98 100.49 53.54 M 68.08 96.92 C 73.83 86.49 86.32 72.57 100.23 59.94 M 68.08 96.92 C 80.89 81.89 94.03 68.26 100.23 59.94 M 75.04 95.02 C 87.34 86.11 93.68 83.62 98 68.6 M 75.04 95.02 C 80.05 84.81 86.03 81.04 98 68.6" fill="none" stroke="Black" stroke-width="2" stroke-linecap="round" stroke-linejoin="round" stroke-miterlimit="10" class="atom" id="atom10_0" transform="translate(152.27796811375782,-109.3968483419214)translate(-50,-50)"/><path d="M 1.75 71.1 C -2.21 62.77 -0.54 47.07 1.13 37.78 C 2.8 28.49 6.25 20.71 11.78 15.36 C 17.31 10.01 26.04 7.16 34.3 5.69 C 42.57 4.22 52.08 4.47 61.37 6.54 C 70.66 8.61 83.87 12.71 90.02 18.13 C 96.18 23.55 97.05 30.82 98.29 39.06 C 99.52 47.29 99.95 58.8 97.43 67.54 C 94.9 76.29 90.47 86.27 83.14 91.53 C 75.8 96.79 62.42 98.98 53.42 99.1 C 44.41 99.23 37.06 95.51 29.1 92.3 C 21.13 89.09 8.73 90.74 5.63 79.84 C 2.52 68.94 4.59 39.3 10.47 26.9 C 16.35 14.5 40.53 4.72 40.91 5.42 M 19.68 14.8 C 24.86 8.28 33.82 -0.17 42.24 -1.54 C 50.66 -2.92 62.49 1.96 70.21 6.54 C 77.93 11.13 83.04 18.62 88.57 25.99 C 94.1 33.35 102.21 43.66 103.41 50.76 C 104.61 57.86 100.27 61.97 95.76 68.58 C 91.25 75.19 84.15 84.83 76.33 90.44 C 68.52 96.05 57.22 101.67 48.88 102.24 C 40.55 102.82 33.78 99.41 26.32 93.89 C 18.85 88.36 8.55 76.76 4.11 69.1 C -0.33 61.44 -2.06 55.11 -0.32 47.95 C 1.42 40.8 12.7 32.44 14.55 26.16 C 16.39 19.89 11.06 13.09 10.74 10.32 C 10.41 7.56 12 8.08 12.58 9.56" fill="none" stroke="Black" stroke-width="2" stroke-linecap="round" stroke-linejoin="round" stroke-miterlimit="10" class="atom" id="atom10_1" transform="translate(152.27796811375782,-109.3968483419214)translate(-50,-50)"/><circle cx="137.396795552815" cy="-258.65685873724277" r="50" fill="white"/><path d="M 11.38 16.94 C 11.38 16.94 11.38 16.94 11.38 16.94 M 11.38 16.94 C 11.38 16.94 11.38 16.94 11.38 16.94 M 7.74 25.7 C 10.53 27.42 10.78 20.75 20.86 10.61 M 7.74 25.7 C 11.39 19.33 18.99 17.94 20.86 10.61 M 4.76 33.71 C 12.26 20.26 15.75 17.55 31 3.52 M 4.76 33.71 C 10.66 23.86 19.18 14.74 31 3.52 M 1.12 42.47 C 14.99 31.22 25.69 18.37 34.57 3.98 M 1.12 42.47 C 10.12 26.02 21.84 19.03 34.57 3.98 M 0.76 47.45 C 14.15 34.07 26.73 22.01 38.15 4.43 M 0.76 47.45 C 5.76 37.67 16.09 29.94 38.15 4.43 M 0.4 52.44 C 5.76 45.03 20.39 33.06 41.73 4.89 M 0.4 52.44 C 9.99 36.2 24.65 26.81 41.73 4.89 M 0.69 56.67 C 19.99 44.3 27.09 25.54 45.3 5.35 M 0.69 56.67 C 18.61 38.1 29.09 18.4 45.3 5.35 M 2.3 59.4 C 7.28 43.03 28.48 28.85 49.54 5.06 M 2.3 59.4 C 10.81 48.43 20.58 39.9 49.54 5.06 M 3.91 62.12 C 7.79 54.77 20.1 31.1 53.11 5.52 M 3.91 62.12 C 19.84 44.29 28.45 31.56 53.11 5.52 M 4.86 65.6 C 23.5 45.32 35.41 20.3 56.69 5.97 M 4.86 65.6 C 17.07 50.45 26.44 37.87 56.69 5.97 M 6.47 68.32 C 16.19 50.38 27.45 40.51 60.92 5.68 M 6.47 68.32 C 30.05 40.52 48.98 18.35 60.92 5.68 M 8.08 71.04 C 19.44 56.04 43.64 36.97 63.18 7.65 M 8.08 71.04 C 25.5 49.37 43.52 29.23 63.18 7.65 M 9.68 73.76 C 24.8 64.09 44.52 35.9 66.1 8.86 M 9.68 73.76 C 25.24 51.81 47.62 31.34 66.1 8.86 M 10.64 77.24 C 33.66 46.28 52.9 27.33 69.02 10.07 M 10.64 77.24 C 22.49 57.64 37.88 42.44 69.02 10.07 M 12.9 79.21 C 31.47 64.5 53.22 38.51 71.29 12.04 M 12.9 79.21 C 32.12 52.49 50.76 30.88 71.29 12.04 M 15.16 81.18 C 31.24 63.41 57.02 37.23 74.21 13.25 M 15.16 81.18 C 26.88 64.01 40.66 45.44 74.21 13.25 M 17.43 83.15 C 40.81 61.3 50.02 44.03 76.47 15.22 M 17.43 83.15 C 35.92 60.39 58.53 38.44 76.47 15.22 M 19.69 85.11 C 40.02 61.41 65.16 37.55 79.39 16.44 M 19.69 85.11 C 31.83 72.82 48.31 57.66 79.39 16.44 M 21.96 87.08 C 35.57 75.26 49.17 53.6 82.31 17.65 M 21.96 87.08 C 42.62 62.31 65.39 39.25 82.31 17.65 M 23.56 89.81 C 33.98 73.58 62.65 41.41 84.58 19.62 M 23.56 89.81 C 47.18 61.93 67.07 40.17 84.58 19.62 M 25.83 91.77 C 36.35 81.57 51.21 63.37 86.84 21.59 M 25.83 91.77 C 47.72 69.28 63.24 48.12 86.84 21.59 M 28.09 93.74 C 51.41 73.8 62.05 46.78 88.45 24.31 M 28.09 93.74 C 49.09 64.86 74.17 40.4 88.45 24.31 M 30.36 95.71 C 50.33 66.09 70.73 38.83 90.71 26.28 M 30.36 95.71 C 56.09 67.55 74.56 44.3 90.71 26.28 M 33.93 96.17 C 43.61 78.75 56.13 68.03 92.32 29 M 33.93 96.17 C 44.99 80.03 61.4 66.25 92.32 29 M 37.51 96.63 C 54.44 75.04 76.25 50.29 94.59 30.97 M 37.51 96.63 C 58.68 71.11 80.28 47.38 94.59 30.97 M 41.09 97.09 C 60 78 75.46 63.83 96.19 33.69 M 41.09 97.09 C 54.25 77.99 67.87 64.65 96.19 33.69 M 44.01 98.3 C 66.55 79.84 82.65 47.78 98.46 35.66 M 44.01 98.3 C 63.61 76.21 83.27 50.83 98.46 35.66 M 47.58 98.76 C 64.96 79.51 83.64 56.25 100.07 38.38 M 47.58 98.76 C 70.5 77.76 88.44 53.91 100.07 38.38 M 51.16 99.22 C 73.53 75.2 81.35 58.31 102.33 40.35 M 51.16 99.22 C 65.4 86.72 81 68.57 102.33 40.35 M 54.73 99.68 C 71.38 88.77 82.66 65.08 101.31 46.09 M 54.73 99.68 C 70.64 81.23 90.02 59.79 101.31 46.09 M 58.31 100.14 C 68.29 85.21 72.33 75.78 100.3 51.83 M 58.31 100.14 C 70.19 85.99 82.2 73.49 100.3 51.83 M 61.23 101.35 C 73.95 88.1 82.91 78.91 99.28 57.58 M 61.23 101.35 C 74.87 86.34 83.87 76.09 99.28 57.58 M 68.74 97.28 C 76.24 78.89 91.36 69.84 97.61 64.07 M 68.74 97.28 C 74.7 91.05 81.5 79.16 97.61 64.07 M 76.91 92.45 C 79.83 92.32 86.78 82.97 89.38 78.12 M 76.91 92.45 C 83.1 89.31 89.16 78.79 89.38 78.12" fill="none" stroke="Turquoise" stroke-width="2" stroke-linecap="round" stroke-linejoin="round" stroke-miterlimit="10" class="atom" id="atom11_0" transform="translate(137.396795552815,-258.65685873724277)translate(-50,-50)"/><path d="M -0.59 46.76 C -0.53 37.79 5.87 24.3 11.37 16.95 C 16.88 9.59 24.5 4.7 32.46 2.6 C 40.42 0.51 50.73 1.84 59.16 4.38 C 67.59 6.92 76.09 12.03 83.02 17.86 C 89.95 23.69 98.41 31.66 100.74 39.33 C 103.06 47.01 99.9 55.86 96.97 63.89 C 94.05 71.92 89.33 81.41 83.19 87.5 C 77.05 93.6 68.99 99.16 60.13 100.46 C 51.27 101.77 38.24 99.26 30.02 95.34 C 21.81 91.42 15.95 83.53 10.86 76.94 C 5.77 70.35 -0.83 65.03 -0.5 55.82 C -0.17 46.61 7.77 29.53 12.86 21.68 C 17.94 13.83 29.59 8.03 30.01 8.74 M 26.39 8.96 C 32.74 3.67 42.7 -1.83 51.34 -1.64 C 59.99 -1.45 71.14 4.37 78.27 10.08 C 85.4 15.79 90.02 24.45 94.1 32.61 C 98.19 40.77 103.33 51.5 102.78 59.02 C 102.23 66.54 96.59 71.68 90.82 77.74 C 85.05 83.8 76.61 91.51 68.14 95.39 C 59.67 99.27 48.29 102.25 40 101.02 C 31.7 99.79 24.82 94.66 18.37 88.03 C 11.92 81.4 4.02 69.55 1.28 61.24 C -1.46 52.93 -1.24 45.42 1.92 38.19 C 5.08 30.96 17.28 23.27 20.24 17.84 C 23.2 12.41 19.54 7.69 19.68 5.61 C 19.82 3.52 20.63 3.98 21.08 5.33" fill="none" stroke="Turquoise" stroke-width="2" stroke-linecap="round" stroke-linejoin="round" stroke-miterlimit="10" class="atom" id="atom11_1" transform="translate(137.396795552815,-258.65685873724277)translate(-50,-50)"/></svg>